<svg xmlns="http://www.w3.org/2000/svg" width="360" height="360" viewBox="0 0 360 360">
  <g id="组_35" data-name="组 35" transform="translate(-46 -173)">
    <g id="组_30" data-name="组 30" transform="translate(-582 577)" opacity="0.8">
      <rect id="矩形_14" data-name="矩形 14" width="120" height="120" transform="translate(628 -404)" fill="#fff"/>
      <text id="壹" transform="translate(638 -311)" fill="#c69551" font-size="100" font-family="zhimang-xing"><tspan x="0" y="0">壹</tspan></text>
    </g>
    <g id="组_32" data-name="组 32" transform="translate(-251 479)" opacity="0.8">
      <rect id="矩形_13" data-name="矩形 13" width="120" height="120" transform="translate(417 -306)" fill="#fff"/>
      <text id="贰" transform="translate(427 -213)" fill="#c69551" font-size="100" font-family="zhimang-xing"><tspan x="0" y="0">贰</tspan></text>
    </g>
    <g id="组_33" data-name="组 33" transform="translate(-402 437)" opacity="0.8">
      <rect id="矩形_12" data-name="矩形 12" width="120" height="120" transform="translate(688 -264)" fill="#fff"/>
      <text id="叁" transform="translate(698 -171)" fill="#c69551" font-size="100" font-family="zhimang-xing"><tspan x="0" y="0">叁</tspan></text>
    </g>
    <g id="组_29" data-name="组 29" transform="translate(-547 696)" opacity="0.8">
      <rect id="矩形_15" data-name="矩形 15" width="120" height="120" transform="translate(833 -403)" fill="#fff"/>
      <text id="陆" transform="translate(843 -310)" fill="#c69551" font-size="100" font-family="zhimang-xing"><tspan x="0" y="0">陆</tspan></text>
    </g>
    <g id="组_26" data-name="组 26" transform="translate(-880 529)" opacity="0.8">
      <rect id="矩形_16" data-name="矩形 16" width="120" height="120" transform="translate(926 -236)" fill="#fff"/>
      <text id="肆" transform="translate(936 -143)" fill="#c69551" font-size="100" font-family="zhimang-xing"><tspan x="0" y="0">肆</tspan></text>
    </g>
    <g id="组_27" data-name="组 27" transform="translate(-860 739)" opacity="0.8">
      <rect id="矩形_17" data-name="矩形 17" width="120" height="120" transform="translate(1026 -446)" fill="#fff"/>
      <text id="伍" transform="translate(1036 -353)" fill="#c69551" font-size="100" font-family="zhimang-xing"><tspan x="0" y="0">伍</tspan></text>
    </g>
    <g id="组_34" data-name="组 34" transform="translate(-740 859)" opacity="0.8">
      <rect id="矩形_17-2" data-name="矩形 17" width="120" height="120" transform="translate(1026 -446)" fill="#fff"/>
    </g>
    <g id="组_28" data-name="组 28" transform="translate(-797 947)" opacity="0.8">
      <rect id="矩形_18" data-name="矩形 18" width="120" height="120" transform="translate(843 -534)" fill="#fff"/>
      <text id="柒" transform="translate(853 -441)" fill="#c69551" font-size="100" font-family="zhimang-xing"><tspan x="0" y="0">柒</tspan></text>
    </g>
    <g id="组_31" data-name="组 31" transform="translate(-424 988)" opacity="0.8">
      <rect id="矩形_19" data-name="矩形 19" width="120" height="120" transform="translate(590 -575)" fill="#fff"/>
      <text id="捌" transform="translate(600 -482)" fill="#c69551" font-size="100" font-family="zhimang-xing"><tspan x="0" y="0">捌</tspan></text>
    </g>
  </g>
</svg>
