<svg xmlns="http://www.w3.org/2000/svg" width="42.145" height="42.146" viewBox="0 0 42.145 42.146">
  <g id="组_25" data-name="组 25" transform="translate(-8.454 -44.455)">
    <g id="组_20" data-name="组 20" transform="translate(8.454 44.455)">
      <path id="路径_11" data-name="路径 11" d="M106.406,127.479a21.073,21.073,0,1,1,21.073-21.073A21.135,21.135,0,0,1,106.406,127.479Zm0-38.985a17.912,17.912,0,1,0,17.912,17.912A17.9,17.9,0,0,0,106.406,88.494Z" transform="translate(-85.333 -85.333)" fill="#daa45a"/>
    </g>
    <path id="联合_1" data-name="联合 1" d="M2.085,16.681H2.032A2.085,2.085,0,0,1,0,14.6V2.085a2.085,2.085,0,0,1,4.171,0V12.511H14.6a2.085,2.085,0,1,1,0,4.17Z" transform="translate(33.002 54.079) rotate(45)" fill="#daa45a"/>
  </g>
</svg>
